<svg t="1669604146370" class="icon" viewBox="0 0 1024 1024" version="1.1" xmlns="http://www.w3.org/2000/svg" p-id="4536" width="200" height="200"><path d="M794.3 855.1H254.9c-39.3 0-71.4-34.4-71.4-76.6V489.6c0-42.2 32-76.6 71.4-76.6h539.4c39.4 0 71.4 34.4 71.4 76.6v66.5c0 4.9-2.1 9.7-5.8 13-5.9 5.3-12.5 4.6-15.4 4.3l-1-0.1c-25.7 0-46.9 24.1-46.9 53.6 0 29.6 21.2 53.6 47.3 53.6 0.3 0 6.9 0.1 12.7 0.3 5 0.1 9.1 4.2 9.1 9.3v88.4c-0.1 42.2-32.1 76.6-71.4 76.6zM254.9 447.9c-20.1 0-36.5 18.7-36.5 41.8v288.8c0 23 16.4 41.8 36.5 41.8h539.4c20.1 0 36.5-18.7 36.5-41.8v-64.2c-39.1-6.8-69-43.4-69-87.3 0-44 30-80.6 69-87.3v-50c0-23-16.4-41.8-36.5-41.8H254.9z" fill="#050505" p-id="4537"></path><path d="M727.2 396.8c21 0 39.2 12.9 48.1 31.7 8.3-14 9.9-32.2 2.5-48.9 0 0-29-65.4-28.9-65.2 0.1 0.2-2.3 1.3-3.5 1.8-29.6 13.3-65-1.7-79.1-33.4-14-31.7-1.4-68.1 28.2-81.4 1.2-0.5 3.7-1.2 3.7-1.4-0.1-0.2-23.8-53.7-23.8-53.7-11.7-26.4-41.2-38.8-65.9-27.8l-447.1 200c-24.7 11-35.2 41.4-23.5 67.8l12 27.2c9.7-10.3 23.1-16.6 37.9-16.6h539.4z" fill="#7F291B" p-id="4538"></path><path d="M354.7 408.8l-34.1 1-57.7-136.3 31.6-13.8z" fill="#EBD037" p-id="4539"></path><path d="M776.6 649c-35.7 0-64.7-31-64.7-69.2s29-69.2 64.7-69.2c1.5 0 4.3 0.5 4.3 0.2V446c0-31.8-24.1-57.7-53.9-57.7H187.6c-29.8 0-53.9 25.8-53.9 57.7v281.4c0 31.8 24.1 57.7 53.9 57.7H727c29.8 0 53.9-25.8 53.9-57.7v-78.7c0 0.3-2.8 0.3-4.3 0.3z" fill="#A53B24" p-id="4540"></path><path d="M335.3 390.7h34.9v394.7h-34.9zM230.2 390.7h34.5v394.7h-34.5zM437.2 386.7h-34.5l-62.8-148 31.6-13.9z" fill="#EBD037" p-id="4541"></path></svg>