<svg t="1669604284995" class="icon" viewBox="0 0 1024 1024" version="1.1" xmlns="http://www.w3.org/2000/svg" p-id="5879" width="200" height="200"><path d="M511.5904 508.7232m-450.816 0a450.816 450.816 0 1 0 901.632 0 450.816 450.816 0 1 0-901.632 0Z" fill="#FF5C64" p-id="5880"></path><path d="M243.5584 518.3488c0-72.6016-0.0512-145.2032 0-217.7536 0-36.2496 18.0224-54.1184 54.6304-54.1184 77.056-0.0512 154.0608-0.0512 231.1168 0 35.3792 0.0512 53.6064 18.3808 53.6576 54.016 0.1024 53.3504 0 106.6496 0.0512 160 0.0512 23.9104 4.7104 28.7744 28.0576 29.952 40.704 1.9456 62.3616 24.2176 62.5152 64.8192 0.2048 47.9232 0 95.7952 0.1024 143.7184 0 12.032-0.6144 24.5248 16.8448 25.6 27.2896 1.7408 39.7824-4.7616 41.984-23.5008 0.9728-8.2944 0.6144-16.7424 0.6144-25.1392 0.0512-69.632 0.0512-139.264 0-208.896 0-20.6336-1.5872-22.4256-21.3504-26.2656-28.2624-5.4784-43.8784-23.0912-45.2608-52.0192-0.6656-13.7728-0.7168-27.648-0.1536-41.472 0.9216-22.9888-6.9632-40.7552-26.2144-54.5792-7.6288-5.4784-12.9536-15.616-16.384-24.7296-1.6384-4.352 2.0992-13.2096 6.1952-16.4864 3.2768-2.6112 12.0832-1.9456 16.2816 0.7168 36.3008 22.9376 72.5504 45.9264 107.8784 70.3488 19.2512 13.312 25.5488 33.9968 25.4976 57.088-0.1536 99.7376-0.0512 199.5264-0.0512 299.264 0 20.224 0.256 40.4992-0.1024 60.7232-0.3584 21.0944-9.9328 30.9248-30.9248 31.1808-28.16 0.3584-56.2688 0.2048-84.4288 0.0512-25.088-0.1536-36.1472-10.8544-36.3008-36.1984-0.3072-54.3232-0.0512-108.6464-0.1536-162.9696 0-5.376-0.3072-10.8544-1.28-16.1792-2.3552-12.6464-10.9056-18.944-23.1424-18.176-12.4416 0.768-19.7632 8.448-20.0192 21.3504-0.3072 14.7968-0.2048 29.6448-0.2048 44.4416 0 45.9264 0.0512 91.8528-0.0512 137.7792-0.0512 23.04-7.0656 29.952-30.1568 29.952-92.8256 0.0512-185.6512 0.0512-278.528 0-24.7296 0-30.72-5.888-30.72-30.3616-0.0512-74.0352 0-148.1216 0-222.1568z m174.08-84.5312c30.72 0 61.4912-0.3584 92.2112 0.1536 13.312 0.256 19.3024-5.3248 19.2512-18.2784-0.0512-28.8256 0-57.7024 0-86.528 0-13.0048-6.4512-18.3296-19.5072-18.2784-61.44 0.3072-122.9312 0.1024-184.3712 0.1536-15.7184 0.0512-19.4048 3.6864-19.5072 19.0976-0.1536 28.3648 0.256 56.7296-0.1536 85.0944-0.2048 13.1584 5.0176 18.8416 18.5344 18.6368 31.1296-0.4096 62.3104-0.0512 93.5424-0.0512z m0.1024 112.4352c17.9712 0 35.9424 0.1024 53.9136 0 19.2-0.1024 21.5552-2.4576 21.6576-20.992 0.0512-6.6048-0.3584-13.2608 0.1024-19.8656 0.8704-13.3632-5.0176-18.7392-18.432-18.5344-32.1536 0.4608-64.3072 0.4096-96.4608 0.1024-41.1136-0.4096-39.0656-1.9968-38.8096 41.2672 0.0512 12.3392 6.2976 18.1248 18.4832 18.0736 19.8144-0.1024 39.68-0.0512 59.5456-0.0512z" fill="#FFFFFF" p-id="5881"></path></svg>