<svg t="1669604355083" class="icon" viewBox="0 0 1024 1024" version="1.1" xmlns="http://www.w3.org/2000/svg" p-id="7046" width="200" height="200"><path d="M511.993 511.831001m-511.831001 0a511.831001 511.831001 0 1 0 1023.662002 0 511.831001 511.831001 0 1 0-1023.662002 0Z" fill="#E84F4F" p-id="7047"></path><path d="M1016.906042 428.005492l-174.920976-174.920975-561.952707 34.669797-33.407804 546.1948 183.430925 183.430925c26.787843 4.411974 54.209682 6.617961 81.94352 6.617961 282.710343 0 511.839001-229.130657 511.839001-511.839001 0-28.681832-2.521985-56.731668-6.933959-83.835509v-0.315998h0.002z" fill="#D14747" p-id="7048"></path><path d="M295.162271 253.082517h546.824795v53.895684H327.62208c-14.813913 0-27.103841 12.291928-27.103841 27.103841V978.294268c-18.595891-8.50795-36.559786-17.965895-53.895684-28.681832V301.620233c0.002-26.791843 21.747873-48.537716 48.539716-48.537716z" fill="#CCCCCC" p-id="7049"></path><path d="M842.299065 284.916331v22.377868H327.938078c-14.813913 0-27.103841 12.291928-27.103841 27.103842v644.212225c-7.247958-3.151982-14.497915-6.617961-21.431874-10.401939V328.408076c0-23.95186 19.539886-43.177747 43.177747-43.177747h519.718955v-0.313998z" fill="#A9A9A9" p-id="7050"></path><path d="M385.929739 328.724074h414.451571a16.949901 16.949901 0 0 1 17.019901 17.0199v373.163814a16.949901 16.949901 0 0 1-17.019901 17.0199H385.929739a16.947901 16.947901 0 0 1-17.019901-17.0199V345.743974a16.951901 16.951901 0 0 1 17.019901-17.0199z" fill="#FFD630" p-id="7051"></path><path d="M436.98744 284.916331h34.353798v69.023595c0 8.50795-7.563956 15.44391-17.0199 15.44391s-17.0199-6.933959-17.0199-15.44391v-69.023595h-0.313998z m278.298369 0h34.353799v69.023595c0 8.50795-7.563956 15.44391-17.019901 15.44391-9.453945 0-17.0199-6.933959-17.0199-15.44391v-69.023595h-0.313998z" fill="#B3B3B3" p-id="7052"></path><path d="M419.969539 452.587348v-75.641557h15.127912v29.627827h29.627826v-29.627827h15.44391v75.641557h-15.44391v-33.093806h-29.627826v33.093806h-15.127912z m73.119572-37.189782c0-7.563956 1.259993-14.183917 3.465979-19.539885 1.575991-3.781978 4.095976-7.247958 6.93396-10.40194 2.835983-3.151982 6.301963-5.357969 9.771943-6.933959 4.727972-1.889989 10.085941-2.835983 16.389904-2.835983 11.031935 0 20.171882 3.46598 26.787843 10.401939 6.617961 6.933959 10.085941 16.389904 10.085941 28.99583 0 12.291928-3.46598 21.745873-10.085941 28.681832-6.617961 6.933959-15.44391 10.401939-26.473845 10.401939-11.347934 0-20.171882-3.46598-26.787843-10.401939s-10.087941-16.391904-10.087941-28.367834z m15.757907-0.629996c0 8.50795 1.889989 15.127911 5.987965 19.539885 4.095976 4.411974 8.823948 6.617961 15.127912 6.617961 5.987965 0 11.031935-2.205987 15.127911-6.617961 3.781978-4.411974 5.987965-11.031935 5.987965-19.855883 0-8.50795-1.889989-15.127911-5.671967-19.225888-3.781978-4.411974-8.823948-6.301963-15.127911-6.301963s-11.347934 2.205987-15.127911 6.617961c-3.781978 4.411974-5.671967 10.715937-5.671967 19.539886l-0.631997-0.313998z m86.357494 37.819778v-62.719632h-22.377868v-12.607927h59.881649v12.607927h-22.377869v62.719632h-15.125912z m47.275723 0v-75.641557h55.785674v12.607926h-40.657762v16.703903h37.819778v12.607926h-37.819778v20.48588h41.917754v12.607926h-57.359664l0.313998 0.627996z m70.599587 0v-74.695562h15.443909v62.087636h37.819779v12.607926h-53.263688z" fill="#D95A00" p-id="7053"></path><path d="M495.295098 470.237245h190.994881c12.291928 0 22.061871 10.085941 22.061871 22.06187V679.19602h-235.118623v-186.896905c0-12.291928 10.083941-22.061871 22.061871-22.06187z" fill="#A86D00" p-id="7054"></path><path d="M496.55509 471.497237h188.472896c11.97793 0 21.745873 9.771943 21.745873 21.745873v184.37692H474.809218v-184.37692c0-11.97593 9.771943-21.745873 21.745872-21.745873z" fill="#FFFFFF" p-id="7055"></path><path d="M474.809218 670.68607h231.966641v18.595891H474.809218v-18.595891z" fill="#E6E6E6" p-id="7056"></path><path d="M483.635166 656.190155l3.151982 48.537716h-14.813913l6.617961-48.537716h5.04397z" fill="#EC6604" p-id="7057"></path><path d="M480.797183 596.304506c11.97793 0 21.745873 9.771943 21.745872 21.745873 0 4.411974-1.259993 8.193952-3.465979 11.661931 10.401939 1.575991 18.595891 10.715937 18.595891 21.745873 0 12.291928-9.769943 22.061871-22.061871 22.061871-5.987965 0-11.347934-2.521985-15.443909-6.301963a20.025883 20.025883 0 0 1-15.759908 7.563955c-11.031935 0-20.171882-9.139946-20.171882-20.171882s9.139946-20.171882 20.171882-20.171881h2.521985c-4.727972-4.095976-7.877954-10.085941-7.877954-16.703903 0-11.97793 9.771943-21.745873 21.745873-21.745872v0.315998z" fill="#17BF41" p-id="7058"></path><path d="M708.35185 656.190155l3.151981 48.537716h-14.813913l6.617961-48.537716h5.043971z" fill="#EC6604" p-id="7059"></path><path d="M705.199868 596.304506c11.97793 0 21.745873 9.771943 21.745873 21.745873 0 4.411974-1.259993 8.193952-3.46598 11.661931 10.401939 1.575991 18.595891 10.715937 18.595891 21.745873 0 12.291928-9.771943 22.061871-22.061871 22.061871-5.987965 0-11.347934-2.521985-15.443909-6.301963a20.025883 20.025883 0 0 1-15.759908 7.563955c-11.031935 0-20.171882-9.139946-20.171882-20.171882s9.139946-20.171882 20.171882-20.171881h2.521985c-4.727972-4.095976-7.877954-10.085941-7.877954-16.703903 0-11.97793 9.771943-21.745873 21.745873-21.745872v0.315998z" fill="#17BF41" p-id="7060"></path><path d="M466.615266 687.389972h248.670543v25.843849H466.615266v-25.843849z" fill="#CCCCCC" p-id="7061"></path><path d="M540.99683 610.488423h99.593417v59.881649h-99.593417v-59.881649z" fill="#EC6604" p-id="7062"></path><path d="M497.501085 536.422857h30.571821v21.431874h-30.571821v-21.431874z m111.255348 0h30.571821v21.431874h-30.571821v-21.431874z m45.069736 0H684.39799v21.431874h-30.571821v-21.431874z m0 35.299793H684.39799v21.431874h-30.571821v-21.431874z m-45.069736 0h30.571821v21.431874h-30.571821v-21.431874z m-66.185612-35.299793h30.571821v21.431874h-30.571821v-21.431874z m0 35.299793h30.571821v21.431874h-30.571821v-21.431874z m-45.069736 0h30.571821v21.431874h-30.571821v-21.431874z" fill="#999999" p-id="7063"></path><path d="M513.890989 484.421162l3.46598 10.401939h11.031935l-8.823948 6.301963 3.465979 10.401939-8.823948-6.301963-8.823948 6.301963 3.465979-10.401939-8.823948-6.301963h11.031936l3.465979-10.401939h-0.631996z m34.0378-2.837984l4.095976 12.607926h13.237923l-10.715937 7.877954 4.095976 12.607926-10.715938-7.877954-10.715937 7.877954 4.095976-12.607926-10.715937-7.877954h13.237923l4.099975-12.607926z m120.079297 2.837984l-3.46598 10.401939h-11.031935l8.823948 6.301963-3.46598 10.401939 8.823949-6.301963 8.823948 6.301963-3.46598-10.401939 8.823949-6.301963h-11.031936l-3.465979-10.401939h0.631996z m-34.037801-2.837984l-4.095976 12.607926h-13.237922l10.715937 7.877954-4.095976 12.607926 10.715937-7.877954 10.715938 7.877954-4.095976-12.607926 10.715937-7.877954h-13.237923l-4.099976-12.607926z m-42.863749-2.837983l-4.727972 14.813913h-15.443909l12.607926 9.139946-4.727972 14.813914 12.607926-9.139947 12.607926 9.139947-4.727973-14.813914 12.607927-9.139946h-15.44391l-4.727972-14.813913h-0.631997z" fill="#E87D04" p-id="7064"></path><path d="M507.587026 609.858427h22.061871v17.0199h-22.061871v-17.0199z m144.347154 0H673.998051v17.0199h-22.061871v-17.0199z" fill="#999999" p-id="7065"></path><path d="M454.637336 341.016002c5.357969 0 9.771943 4.411974 9.771943 9.771943 0 5.357969-4.411974 9.769943-9.771943 9.769942-5.357969 0-9.771943-4.411974-9.771943-9.769942 0-5.359969 4.415974-9.771943 9.771943-9.771943zM733.251704 341.016002c5.357969 0 9.771943 4.411974 9.771942 9.771943 0 5.357969-4.411974 9.769943-9.771942 9.769942-5.357969 0-9.771943-4.411974-9.771943-9.769942 0-5.359969 4.411974-9.771943 9.771943-9.771943z" fill="#E6E6E6" p-id="7066"></path></svg>