<svg t="1669603943679" class="icon" viewBox="0 0 1024 1024" version="1.1" xmlns="http://www.w3.org/2000/svg" p-id="2924" width="200" height="200"><path d="M309.504 658.5344c-15.2064 0-30.3616-3.6864-43.9808-11.008l-152.4224-82.0736c-16.64-8.96-26.9312-26.2656-26.88-45.1584s10.496-36.096 27.1872-44.9536l55.6544-29.44a50.97984 50.97984 0 0 1 35.1232-4.6592l87.296 19.712 106.24-58.3168-160.8192-129.1776a52.8896 52.8896 0 0 1-19.6096-45.7728 52.8384 52.8384 0 0 1 27.0336-41.8304l71.6288-39.8848c14.8992-8.2944 33.024-8.9088 48.4352-1.6384l268.032 126.72c1.6896 0.8192 3.6352 0.7168 5.2736-0.1536l131.9936-72.448c27.904-15.3088 60.0064-18.6368 90.4704-9.4208 30.464 9.216 55.296 29.8496 70.0416 58.0096 15.0016 28.7744 17.5104 61.4912 6.9632 92.2112s-32.512 55.0912-62.0032 68.608L348.2112 650.0864c-12.2368 5.632-25.4976 8.448-38.7072 8.448z m-150.1696-137.984l135.2704 72.8576c8.6016 4.6592 19.0464 4.9664 27.9552 0.8704l526.8992-242.2272c14.0288-6.4512 24.5248-18.0736 29.5424-32.6656 5.0176-14.6432 3.84-30.208-3.328-43.9296a55.41376 55.41376 0 0 0-33.3312-27.648c-14.4896-4.4032-29.7984-2.7648-43.0592 4.5056l-131.9936 72.448a67.44576 67.44576 0 0 1-61.0816 1.8432L342.016 201.7792l-56.832 31.6416 163.1232 131.0208a50.97472 50.97472 0 0 1 18.8928 44.2368 50.88256 50.88256 0 0 1-26.3168 40.2944l-123.2896 67.6864a51.36896 51.36896 0 0 1-35.84 5.0688l-87.3984-19.7632-35.0208 18.5856z m702.9248-140.5952zM912.6912 762.4192h-284.7232c-16.9472 0-30.72-13.7728-30.72-30.72s13.7728-30.72 30.72-30.72h284.7232c16.9472 0 30.72 13.7728 30.72 30.72s-13.7216 30.72-30.72 30.72zM912.6912 875.1104H128.9728c-16.9472 0-30.72-13.7728-30.72-30.72s13.7728-30.72 30.72-30.72h783.7696c16.9472 0 30.72 13.7728 30.72 30.72s-13.7728 30.72-30.7712 30.72z" fill="#FF6C39" p-id="2925"></path></svg>