<svg t="1669604484682" class="icon" viewBox="0 0 1024 1024" version="1.1" xmlns="http://www.w3.org/2000/svg" p-id="7760" width="200" height="200"><path d="M832.27 696.43c-23.89-25.63-105.92-111.47-158.68-140.24a27.15 27.15 0 0 0-9.87-2.77l-11.01-0.77c-145.43-9.97-210.8-13.33-235.98 11.85-15.15 15.16-21.58 30.55-19.13 45.76 1.59 10.65 8.57 25.86 32.8 38.05 5.89 2.94 17.9 5.89 36.65 9.98l23.89 5.21-118.12 2.13-0.87-0.91c-20.2-21.31-72.03-71.85-116.98-80.76-23.92-4.71-42.52-0.96-55.27 11.15-18.35 17.33-15.09 43.79-14.66 46.75l1 6.61 170.61 146.85c4.78 4.11 10.9 6.46 17.24 6.61 31.42 0.69 187.99 4.05 244.59 5.25l0.86 0.02 0.7 0.48c17.71 12.24 46.69 33.93 67.88 49.97 4.6 3.45 10.33 5.35 16.14 5.35 7.67 0 14.97-3.23 20.03-8.87l108.62-121.95c9.14-10.32 8.95-25.69-0.44-35.75zM704.19 835.04l-2.1-1.58c-16.37-12.32-42.91-31.63-62.51-44.91-0.63-0.42-1.37-0.95-2.19-1.57-4.31-3.15-11.5-8.43-21.13-8.43-39.32 0-133.86-2.55-190.34-4.08l-11.27-0.3c-18-0.48-32.87-0.88-42.31-1.09l-1.04-0.02-159.57-139.73-0.07-1.2c-0.22-3.93 0.68-8.27 2.23-10.8l0.96-1.56c3.74-6.19 10.02-16.58 20.29-14.45 29.55 5.85 75.06 35.32 105.82 68.55 1.23 1.31 2.61 3.1 4.08 5.01 5.3 6.95 10.9 14.3 17.6 14.3l134.46-2.64c3.89-0.13 16.91-1.36 21.41-2.58 1.15-0.32 28.65-8.21 27.68-24.02-0.46-8.3-5.55-15.27-13.6-18.67-8.56-3.61-28.06-7.71-57.58-13.91l-0.7-0.15c-17.16-3.6-25.59-8.51-30.62-11.45l-1.26-0.74c-8.91-5.11-12.52-15.88-13.08-19.25-0.39-2.39 1.9-7.61 9.44-15.17 2.11-2.11 12.93-9.01 63.59-9.14h0.82c40.05 0 97.02 3.9 152.13 7.67l10.88 1.03c31.81 18.33 85.69 66.05 144.14 127.65l1.8 1.9-107.96 121.33zM633.84 284.55H390.15c-8.26 0-14.98 6.72-14.98 14.99s6.72 14.99 14.98 14.99h243.62c8.22 0 14.98-6.74 15.06-15.02 0-8.24-6.72-14.96-14.99-14.96zM390.15 413.8c-8.26 0-14.98 6.69-14.98 14.92 0 8.26 6.72 14.98 14.98 14.98h243.62c8.22 0 14.98-6.74 15.06-15.01 0-8.19-6.72-14.89-14.99-14.89H390.15z" p-id="7761"></path><path d="M686.48 190.98c20.81 0 37.75 16.93 37.75 37.75v293.72c0 8.27 6.72 15 14.98 15 8.27 0 14.99-6.73 14.99-15V228.58c-0.14-37.26-30.53-67.58-67.73-67.58H337.45c-37.31 0-67.66 30.36-67.66 67.66v293.72c0 8.27 6.72 14.99 14.98 14.99 8.27 0 14.99-6.72 14.99-14.99V228.66c0-20.81 16.94-37.75 37.75-37.75h321.91l0.3 2.89 0.51-2.81 26.25-0.01z" p-id="7762"></path></svg>